HIERARCHY
ROOT Hips
{
    OFFSET 0.000000 0.000000 0.000000
    CHANNELS 6 Xposition Yposition Zposition Zrotation Xrotation Yrotation
    JOINT Spine
    {
        OFFSET -0.000000 14.517291 0.000000
        CHANNELS 3 Zrotation Xrotation Yrotation
        JOINT Spine1
        {
            OFFSET -0.000000 37.558300 0.000000
            CHANNELS 3 Zrotation Xrotation Yrotation
            JOINT Neck
            {
                OFFSET -0.000000 37.404057 3.400369
                CHANNELS 3 Zrotation Xrotation Yrotation
                JOINT Head
                {
                    OFFSET -0.000000 24.785618 -3.540803
                    CHANNELS 3 Zrotation Xrotation Yrotation
                    End Site
                    {
                        OFFSET -0.000000 35.408028 0.000000
                    }
                }
            }
            JOINT LeftShoulder
            {
                OFFSET 6.992933 33.973492 -0.192664
                CHANNELS 3 Zrotation Xrotation Yrotation
                JOINT LeftArm
                {
                    OFFSET 21.527611 0.000000 0.000000
                    CHANNELS 3 Zrotation Xrotation Yrotation
                    JOINT LeftForeArm
                    {
                        OFFSET 56.353916 0.000000 0.000000
                        CHANNELS 3 Zrotation Xrotation Yrotation
                        JOINT LeftHand
                        {
                            OFFSET 47.774071 0.000000 0.000000
                            CHANNELS 3 Zrotation Xrotation Yrotation
                            End Site
                            {
                                OFFSET 26.556021 0.000000 0.000000
                            }
                        }
                    }
                }
            }
            JOINT RightShoulder
            {
                OFFSET -7.065357 33.973492 -0.192664
                CHANNELS 3 Zrotation Xrotation Yrotation
                JOINT RightArm
                {
                    OFFSET -21.527611 0.000000 0.000000
                    CHANNELS 3 Zrotation Xrotation Yrotation
                    JOINT RightForeArm
                    {
                        OFFSET -56.353916 0.000000 0.000000
                        CHANNELS 3 Zrotation Xrotation Yrotation
                        JOINT RightHand
                        {
                            OFFSET -47.774071 0.000000 0.000000
                            CHANNELS 3 Zrotation Xrotation Yrotation
                            End Site
                            {
                                OFFSET -26.556021 0.000000 0.000000
                            }
                        }
                    }
                }
            }
        }
    }
    JOINT LeftUpLeg
    {
        OFFSET 17.704014 0.000000 0.000000
        CHANNELS 3 Zrotation Xrotation Yrotation
        JOINT LeftLeg
        {
            OFFSET -0.000000 -81.181816 0.000000
            CHANNELS 3 Zrotation Xrotation Yrotation
            JOINT LeftFoot
            {
                OFFSET -0.000000 -62.821102 0.000000
                CHANNELS 3 Zrotation Xrotation Yrotation
                JOINT LeftToeBase
                {
                    OFFSET -0.000000 -11.507608 26.556021
                    CHANNELS 3 Zrotation Xrotation Yrotation
                    End Site
                    {
                        OFFSET -0.000000 0.000000 7.081605
                    }
                }
            }
        }
    }
    JOINT RightUpLeg
    {
        OFFSET -17.704014 0.000000 0.000000
        CHANNELS 3 Zrotation Xrotation Yrotation
        JOINT RightLeg
        {
            OFFSET -0.000000 -81.181816 0.000000
            CHANNELS 3 Zrotation Xrotation Yrotation
            JOINT RightFoot
            {
                OFFSET -0.000000 -62.821102 0.000000
                CHANNELS 3 Zrotation Xrotation Yrotation
                JOINT RightToeBase
                {
                    OFFSET -0.000000 -11.507608 26.556021
                    CHANNELS 3 Zrotation Xrotation Yrotation
                    End Site
                    {
                        OFFSET -0.000000 0.000000 7.081605
                    }
                }
            }
        }
    }
}
MOTION
Frames:    11
Frame Time:    0.008333
4.275705    147.619537    -59.906841    0.601187    -28.256546    28.695377    -6.074810    -2.709711    1.119068    -0.939654    2.621326    0.437640    1.318984    4.336984    -14.216739    15.078738    14.378129    -14.759606    1.515320    9.344799    -12.817674    -33.521557    21.341473    -51.705837    -1.347674    -29.356712    -115.991089    -8.016370    -30.604307    -10.195994    1.534911    13.805943    -6.049162    32.704163    19.676529    46.333614    1.900048    13.912456    33.515045    -19.813055    7.113120    35.161766    28.163729    18.894178    -3.618833    -17.039976    51.687237    -19.130695    17.888762    -39.901001    50.648136    0.000000    0.000000    0.000000    -8.950220    -0.108026    -4.834554    10.703512    27.370325    -7.564589    6.595648    1.967874    -12.757910    0.000000    0.000000    0.000000    
4.286377    147.610107    -59.908997    0.609383    -28.248941    28.701591    -6.078937    -2.699733    1.119218    -0.942279    2.612285    0.437624    1.326162    4.333665    -14.214662    15.064337    14.374428    -14.757923    1.513350    9.347919    -12.824264    -33.524982    21.352409    -51.695133    -1.348308    -29.364330    -116.005142    -8.039517    -30.611645    -10.192776    1.532969    13.793913    -6.041399    32.705750    19.681906    46.327534    1.905182    13.920588    33.515980    -19.804949    7.125190    35.147823    28.157333    18.882275    -3.611623    -17.049652    51.709949    -19.128967    17.872868    -39.908672    50.632133    0.000000    0.000000    0.000000    -8.966839    -0.125704    -4.831573    10.710460    27.403013    -7.576872    6.587420    1.959740    -12.753826    0.000000    0.000000    0.000000    
4.293161    147.601013    -59.912270    0.601079    -28.243999    28.698507    -6.066176    -2.702563    1.122497    -0.944543    2.619992    0.438825    1.309264    4.335973    -14.215490    15.086747    14.366145    -14.755467    1.509099    9.340913    -12.836619    -33.521080    21.386713    -51.668480    -1.137615    -29.383497    -115.897339    -7.981646    -30.330341    -10.367969    1.532409    13.791180    -6.046721    32.678059    19.713440    46.352375    1.871655    13.893038    33.511326    -19.773706    7.119884    35.134140    28.161741    18.867945    -3.606400    -17.066210    51.727493    -19.106142    17.873861    -39.920418    50.625557    0.000000    0.000000    0.000000    -8.968785    -0.144518    -4.833295    10.712351    27.422873    -7.576389    6.592586    1.958040    -12.741570    0.000000    0.000000    0.000000    
4.301477    147.590607    -59.914963    0.599833    -28.243484    28.697063    -6.053313    -2.692262    1.127406    -0.951086    2.616879    0.440220    1.304718    4.334427    -14.205328    15.095591    14.362371    -14.743695    1.507833    9.343946    -12.840103    -33.526463    21.388809    -51.681232    -1.329061    -29.405132    -116.028442    -8.058754    -30.625290    -10.186110    1.528675    13.801838    -6.048954    32.662502    19.726175    46.377270    1.856303    13.879587    33.511421    -19.747213    7.124530    35.106709    28.166719    18.861658    -3.622894    -17.115234    51.738319    -19.074484    17.886114    -39.930916    50.643597    0.000000    0.000000    0.000000    -8.974800    -0.161981    -4.836333    10.718475    27.455397    -7.581125    6.598418    1.951630    -12.753822    0.000000    0.000000    0.000000    
4.311978    147.581161    -59.919918    0.601214    -28.240746    28.693604    -6.035323    -2.685735    1.137299    -0.968166    2.622040    0.443793    1.316193    4.320333    -14.199512    15.086367    14.369992    -14.740187    1.509213    9.348729    -12.850852    -33.519779    21.399635    -51.680145    -1.321570    -29.424147    -116.043114    -8.063535    -30.633303    -10.193730    1.528645    13.798132    -6.048243    32.657883    19.731688    46.385429    1.842214    13.876910    33.512909    -19.732239    7.132745    35.096832    28.158571    18.857790    -3.625207    -17.129169    51.750145    -19.066214    17.913553    -39.930195    50.670834    0.000000    0.000000    0.000000    -8.987115    -0.176376    -4.826373    10.733173    27.479595    -7.599229    6.598817    1.941310    -12.744864    0.000000    0.000000    0.000000    
4.324669    147.572144    -59.923996    0.610982    -28.232500    28.692816    -6.028941    -2.687453    1.147998    -0.987856    2.638689    0.447831    1.327276    4.325395    -14.195930    15.096104    14.350332    -14.734770    1.518413    9.358256    -12.853456    -33.515724    21.398035    -51.698795    -1.321683    -29.425322    -116.059837    -8.038244    -30.638889    -10.166822    1.540388    13.797966    -6.052653    32.645931    19.727987    46.407158    1.840831    13.874141    33.500458    -19.736591    7.130231    35.091434    28.135456    18.862633    -3.621675    -17.128700    51.745872    -19.033230    17.906696    -39.949429    50.642246    0.000000    0.000000    0.000000    -9.006502    -0.181774    -4.701200    10.800106    27.463184    -7.720598    6.593394    1.924442    -12.749391    0.000000    0.000000    0.000000    
4.338732    147.563568    -59.929771    0.628875    -28.227018    28.686090    -6.029149    -2.682495    1.162222    -0.997572    2.651048    0.452894    1.352525    4.314250    -14.182730    15.061708    14.357652    -14.725286    1.519187    9.366240    -12.857248    -33.535637    21.382021    -51.677982    -1.127134    -29.381725    -115.948776    -8.024611    -30.311760    -10.381292    1.534569    13.788264    -6.041547    32.648129    19.728863    46.409706    1.834514    13.870580    33.501785    -19.727564    7.134829    35.073196    28.105343    18.880291    -3.615016    -17.130215    51.733707    -19.033306    17.920740    -39.952831    50.657692    0.000000    0.000000    0.000000    -9.036115    -0.193594    -4.676297    10.819579    27.484507    -7.734476    6.604257    1.911947    -12.757219    0.000000    0.000000    0.000000    
4.353769    147.558304    -59.933098    0.650047    -28.216053    28.680141    -6.036203    -2.686237    1.172179    -1.001818    2.674189    0.456595    1.329694    4.331887    -14.177253    15.103501    14.335200    -14.713166    1.507968    9.379199    -12.839742    -33.515903    21.385410    -51.706623    -1.120026    -29.396973    -115.951996    -8.059645    -30.312428    -10.416806    1.525894    13.795263    -6.045184    32.645344    19.714352    46.450111    1.845144    13.871339    33.484608    -19.748903    7.127387    35.064911    28.067865    18.896667    -3.614603    -17.133816    51.717468    -19.032990    17.947901    -39.940933    50.680748    0.000000    0.000000    0.000000    -9.067343    -0.199180    -4.666965    10.820953    27.496319    -7.721238    6.601073    1.892171    -12.742312    0.000000    0.000000    0.000000    
4.362430    147.554810    -59.938858    0.666092    -28.201748    28.661461    -6.052279    -2.689981    1.189226    -0.995209    2.686673    0.462551    1.350650    4.328125    -14.164744    15.071312    14.345131    -14.704183    1.501937    9.378535    -12.842628    -33.556664    21.331387    -51.721478    -1.350366    -29.325718    -116.090462    -8.039865    -30.580416    -10.184404    1.525248    13.789950    -6.035505    32.631462    19.723475    46.460361    1.834109    13.859458    33.487808    -19.774237    7.111368    35.059025    28.028782    18.914415    -3.567611    -17.090733    51.708794    -19.073240    17.945572    -39.948162    50.687805    0.000000    0.000000    0.000000    -9.090872    -0.217850    -4.651978    10.816191    27.511471    -7.743322    6.607961    1.884695    -12.717349    0.000000    0.000000    0.000000    
4.374061    147.556458    -59.944092    0.688249    -28.187971    28.648230    -6.063948    -2.691930    1.203681    -0.999001    2.702217    0.467593    1.335545    4.330994    -14.155227    15.096377    14.365151    -14.694906    1.493864    9.383091    -12.831187    -33.559666    21.331860    -51.731670    -1.353076    -29.318342    -116.101509    -8.051531    -30.576092    -10.191820    1.525128    13.789684    -6.040782    32.626183    19.717873    46.496346    1.841114    13.863181    33.459290    -19.798080    7.104190    35.067833    27.983299    18.931629    -3.544024    -17.062855    51.695866    -19.099955    17.948414    -39.937668    50.689041    0.000000    0.000000    0.000000    -9.123024    -0.224606    -4.637499    10.820782    27.511002    -7.712595    6.614697    1.874458    -12.740622    0.000000    0.000000    0.000000    
4.381214    147.560959    -59.949501    0.695889    -28.171545    28.633224    -6.070839    -2.692676    1.210374    -0.994765    2.700662    0.469795    1.339925    4.343883    -14.142877    15.087523    14.379829    -14.684396    1.479956    9.399247    -12.813418    -33.556225    21.332678    -51.745895    -1.342183    -29.318350    -116.099030    -8.027124    -30.562801    -10.193710    1.520666    13.796720    -6.032228    32.625648    19.709955    46.510979    1.843020    13.865871    33.462162    -19.819817    7.101642    35.055477    27.950335    18.939985    -3.522762    -17.039879    51.673351    -19.096359    17.906809    -39.955101    50.670330    0.000000    0.000000    0.000000    -9.137935    -0.236685    -4.630355    10.810250    27.506735    -7.717203    6.608397    1.883202    -12.712422    0.000000    0.000000    0.000000    
